<svg width="84" height="120" viewBox="0 0 84 120" fill="none" xmlns="http://www.w3.org/2000/svg">
<g clip-path="url(#clip0_597_541)">
<path d="M79.8885 51.2461C80.7325 50.9863 81.6496 51.142 82.3607 51.6656C83.0717 52.1892 83.4926 53.0188 83.4951 53.9018V78.0329C83.484 89.2288 78.9613 99.9478 70.9489 107.768C62.9366 115.587 52.1108 119.848 40.918 119.587C18.236 119.043 0.367188 99.9477 0.367188 77.2526V42.9444C0.367188 19.6788 19.3836 0.196872 42.6623 0.596872C62.955 0.977294 80.0151 15.9374 83.0426 36.0067C83.1618 36.9201 82.6093 37.7876 81.7311 38.0657L73.6524 40.5247C73.1173 40.6934 72.5347 40.6118 72.0664 40.3026C71.5982 39.9935 71.2944 39.4897 71.2393 38.9313C69.5773 24.0635 57.0519 12.792 42.0918 12.7018C25.8033 12.6297 12.4721 26.5379 12.4721 42.8329V78.0329C12.4873 94.1094 25.3688 107.215 41.4426 107.508C57.9213 107.784 71.4164 93.8624 71.4164 77.3444V67.4231C71.4288 67.2042 71.331 66.9936 71.1558 66.8619C70.9805 66.7301 70.7511 66.6947 70.5442 66.7674L67.3574 67.7444C66.9138 67.8789 66.4328 67.7962 66.0596 67.5212C65.6865 67.2462 65.4651 66.8112 65.4623 66.3477V57.3444C65.46 56.3649 66.0992 55.4993 67.036 55.2133L71.4164 53.8624L79.8885 51.2461Z" fill="#F5F1E8"/>
<path d="M24.0527 76.6362V42.5379C24.0527 32.9706 31.856 24.5247 41.4167 24.2559C46.239 24.1322 50.9071 25.9599 54.3634 29.3249C57.8198 32.6899 59.7718 37.3074 59.7773 42.1313V77.6067C59.7773 78.4867 59.0639 79.2002 58.1839 79.2002H49.3249C48.4448 79.2002 47.7314 78.4867 47.7314 77.6067V74.669C47.7438 74.4501 47.646 74.2395 47.4708 74.1078C47.2956 73.976 47.0661 73.9406 46.8593 74.0133L28.2626 79.7247C27.28 80.0159 26.2178 79.831 25.3915 79.2248C24.5652 78.6186 24.0699 77.6609 24.0527 76.6362ZM41.5609 36.3543C38.5642 36.5444 36.1314 39.3706 36.1314 42.3739V62.7018C36.1314 63.1663 36.3522 63.6032 36.7261 63.8789C37.1001 64.1545 37.5828 64.236 38.0265 64.0985L46.1511 61.6067C47.0902 61.3186 47.7314 60.4514 47.7314 59.469V42.1444C47.731 40.5418 47.0679 39.0107 45.8992 37.914C44.7305 36.8174 43.1604 36.2528 41.5609 36.3543Z" fill="#F5F1E8"/>
</g>
<defs>
<clipPath id="clip0_597_541">
<rect width="83.9344" height="120" fill="white"/>
</clipPath>
</defs>
</svg>
