<svg width="60" height="120" viewBox="0 0 60 120" fill="none" xmlns="http://www.w3.org/2000/svg">
<path d="M59.6743 60.0651C59.6743 79.3485 59.6743 98.6319 59.6743 118.046C59.6743 119.87 59.544 120 57.7199 120C39.4788 120 21.1075 120 2.86646 120C5.90222e-06 120 0 119.87 0 117.134C0 79.0879 0 41.0423 0 2.99674C0 0.130295 4.03836e-06 0 2.99675 0C16.0261 0 29.0554 0 42.0847 0C47.4267 0 52.7687 0 58.1108 0C59.4137 0 59.8046 0.390881 59.8046 1.69381C59.6743 21.1075 59.6743 40.6515 59.6743 60.0651ZM2.47557 60.0651C2.47557 78.5668 2.47557 96.9381 2.47557 115.44C2.47557 117.524 2.47558 117.655 4.69056 117.655C21.759 117.655 38.8274 117.655 55.8958 117.655C57.329 117.655 57.329 117.655 57.329 116.221C57.329 115.961 57.329 115.7 57.329 115.309C57.329 79.0879 57.329 42.9967 57.329 6.77525C57.329 5.7329 57.329 4.69056 57.329 3.64821C57.329 2.73616 57.0684 2.34528 56.0261 2.34528C38.5668 2.34528 21.2378 2.34528 3.7785 2.34528C2.73616 2.34528 2.34528 2.60586 2.34528 3.64821C2.47557 22.5407 2.47557 41.3029 2.47557 60.0651Z" fill="#F5F1E8"/>
<path d="M13.6811 45.7327C13.8114 41.0421 13.5508 35.3092 13.8114 29.5763C14.2023 23.3222 16.1566 17.7196 19.9351 12.7685C20.1957 12.3776 20.4563 12.117 20.7169 11.7261C21.7592 10.5535 22.2804 10.5535 23.0622 11.8564C24.2348 13.5502 25.2772 15.2441 26.4498 16.9379C26.971 17.7196 27.4922 18.1105 28.4042 18.1105C29.4465 18.1105 30.4889 18.1105 31.5312 18.1105C32.313 18.1105 32.9645 17.8499 33.3553 17.0682C34.3977 15.3744 35.5703 13.6805 36.6127 11.9867C37.5247 10.6838 38.0459 10.5535 39.0882 11.8564C42.7364 16.1561 44.9514 21.1072 45.6029 26.7099C46.1241 31.1398 45.9938 35.5698 45.9938 39.9998C46.1241 48.0779 46.1241 56.1561 45.9938 64.2343C45.9938 65.9281 45.6029 66.319 43.9091 66.319C34.528 66.319 25.0166 66.319 15.6355 66.319C13.9417 66.319 13.5508 65.7978 13.5508 64.104C13.6811 58.3711 13.6811 52.6382 13.6811 45.7327ZM41.5638 55.2441C41.5638 53.2897 41.5638 51.3353 41.5638 49.3809C41.5638 48.7294 41.3032 48.4688 40.6518 48.4688C38.1762 48.4688 35.5703 48.4688 33.0948 48.4688C32.313 48.4688 32.0524 48.7294 32.0524 49.6414C32.0524 53.42 32.0524 57.0682 32.0524 60.8467C32.0524 61.6284 32.313 61.889 33.0948 61.889C35.7006 61.889 38.3065 61.889 40.7821 61.889C41.4335 61.889 41.6941 61.6284 41.6941 60.977C41.5638 59.0226 41.5638 57.0682 41.5638 55.2441ZM27.3619 55.2441C27.3619 53.2897 27.3619 51.3353 27.3619 49.3809C27.3619 48.7294 27.2316 48.4688 26.4498 48.4688C24.1045 48.4688 21.629 48.4688 19.2837 48.4688C18.5019 48.4688 18.2413 48.7294 18.2413 49.5112C18.2413 53.2897 18.2413 57.0682 18.2413 60.8467C18.2413 61.6284 18.5019 61.889 19.2837 61.889C21.7593 61.889 24.1045 61.889 26.5801 61.889C27.2316 61.889 27.4922 61.6284 27.4922 60.977C27.3619 59.0226 27.3619 57.0682 27.3619 55.2441ZM38.4368 30.7489C38.4368 31.661 38.4368 32.573 38.4368 33.4851C38.4368 34.1366 38.5671 34.3971 39.2185 34.1366C40.3912 33.6154 41.4335 32.8336 41.9547 31.661C42.2153 31.1398 42.2153 30.6186 41.9547 30.0975C41.3032 28.7945 40.2609 28.0128 39.0882 27.4916C38.5671 27.3613 38.3065 27.4916 38.4368 28.0128C38.5671 28.9248 38.4368 29.8369 38.4368 30.7489ZM21.3684 30.8792C21.3684 29.8369 21.3684 28.7945 21.3684 27.7522C21.3684 27.3613 21.2381 27.1007 20.7169 27.3613C19.1534 28.0128 17.9808 29.1854 17.7202 30.6186C17.4596 31.7913 18.7625 32.7033 19.6746 33.4851C19.9352 33.7457 20.326 33.876 20.7169 34.1366C21.2381 34.5274 21.4987 34.2669 21.4987 33.7457C21.3684 32.7033 21.3684 31.7913 21.3684 30.8792ZM23.8439 30.8792C23.8439 31.7913 23.8439 32.7033 23.8439 33.6154C23.8439 34.2669 23.9742 34.3971 24.6257 34.1366C25.7983 33.6154 26.8407 32.8336 27.3619 31.661C27.6224 31.1398 27.7527 30.7489 27.4922 30.2278C26.971 28.9248 25.9286 28.0128 24.6257 27.4916C24.1045 27.231 23.8439 27.4916 23.8439 28.0128C23.8439 28.9248 23.8439 29.8369 23.8439 30.8792ZM36.0915 30.8792C36.0915 29.9672 36.0915 28.9248 36.0915 28.0128C36.0915 27.3613 35.9612 27.231 35.3097 27.4916C34.1371 28.0128 33.0948 28.9248 32.5736 30.0975C32.313 30.4884 32.313 31.0095 32.4433 31.4004C33.0948 32.7033 34.1371 33.6154 35.44 34.2669C35.8309 34.5274 36.0915 34.3971 36.0915 33.876C36.0915 32.8336 36.0915 31.7913 36.0915 30.8792Z" fill="#F5F1E8"/>
<path d="M16.2862 78.8274C17.068 78.6971 17.7195 79.2183 18.2406 79.8698C21.7585 83.3877 25.2765 86.9056 28.7944 90.4235C29.4458 91.075 29.8367 91.075 30.3579 90.4235C33.8758 86.7753 37.524 83.2574 41.0419 79.6092C41.6934 78.9577 42.4752 78.5668 43.5175 78.9577C44.4296 79.3486 44.9507 80.0001 45.081 80.9121C45.2113 81.8242 44.6902 82.4756 44.169 82.9968C40.6511 86.5147 37.1331 90.0326 33.6152 93.5505C32.9638 94.202 32.9638 94.5929 33.6152 95.2444C37.0028 98.632 40.3905 102.02 43.7781 105.407C44.0387 105.668 44.2993 105.928 44.5598 106.319C45.3416 107.362 45.3416 108.665 44.4296 109.577C43.5175 110.358 42.2146 110.358 41.3025 109.446C39.9996 108.274 38.827 106.971 37.6543 105.798C35.1788 103.323 32.8335 100.977 30.3579 98.5017C29.7064 97.8502 29.3156 97.9805 28.7944 98.5017C25.2765 102.02 21.7585 105.668 18.2406 109.186C17.5892 109.837 16.8074 110.358 15.7651 109.967C14.0713 109.446 13.5501 107.492 14.853 106.059C16.0256 104.756 17.3286 103.583 18.5012 102.41C20.8465 99.9349 23.3221 97.5896 25.7976 95.1141C26.3188 94.5929 26.3188 94.202 25.7976 93.6808C22.1494 90.1629 18.6315 86.5147 15.1136 82.9968C14.4621 82.3453 14.0713 81.6939 14.2015 80.7818C14.2015 79.4789 14.9833 78.8274 16.2862 78.8274Z" fill="#F5F1E8"/>
<path d="M29.707 75.049C25.277 75.049 20.7167 75.049 16.2868 75.049C14.8535 75.049 13.9415 74.3976 13.6809 73.2249C13.4203 71.7917 14.3324 70.6191 15.8959 70.6191C18.2412 70.6191 20.5864 70.4888 22.9317 70.4888C29.707 70.4888 36.4822 70.4888 43.2574 70.4888C44.9512 70.4888 45.8633 71.2705 45.8633 72.7037C45.9936 74.137 44.9512 75.049 43.2574 75.049C40.6516 75.049 37.9154 75.049 35.3096 75.049C33.4855 75.049 31.6614 75.049 29.707 75.049Z" fill="#F5F1E8"/>
</svg>
