<svg width="422" height="195" viewBox="0 0 422 195" fill="none" xmlns="http://www.w3.org/2000/svg">
<g filter="url(#filter0_d_2739_1304)">
<path d="M162.506 161.083V16.1273H123.604V161.083H162.506Z" fill="white"/>
<path d="M211.082 163.246C233.343 163.246 243.068 147.02 246.094 129.279V161.083H284.996V54.2052H246.094V112.404C246.094 129.712 243.284 133.823 232.046 133.823C220.375 133.823 217.998 126.899 217.998 113.918V54.2052H179.096V129.063C179.096 150.914 191.199 163.246 211.082 163.246Z" fill="white"/>
<path d="M302.368 161.083C323.853 161.083 341.27 143.666 341.27 122.181V107.211C341.27 89.9032 349.483 81.4655 358.344 81.4655C364.611 81.4655 367.204 85.5762 367.204 91.634C367.204 98.1246 362.882 106.346 358.992 110.889H394.652C397.678 105.481 402 94.4466 402 81.4655C402 63.7246 395.084 52.0417 376.498 52.0417C354.669 52.0417 344.512 71.946 341.27 90.3359V54.2052H302.368V161.083V161.083Z" fill="white"/>
<path d="M85 103L95.5765 99.9728H109.904V64.506H95.5765V63.2021C95.5765 54.857 98.7026 48.3373 107.56 48.3373C116.417 48.3373 124.232 52.7707 124.232 70.7649V54.903C124.232 51.4045 123.941 47.8951 122.967 44.5352C118.506 29.1431 108.379 16 87.2403 16C61.4501 16 48.6852 35.0373 48.6852 60.0727V64.506H33.0548V99.9728H48.6852L56.6187 160.734L85 103Z" fill="white"/>
<path d="M48.6852 99.9728L48.6558 123.798C48.6558 132.143 48.6558 148.509 36.2715 148.509C23.8873 148.509 20 134.229 20 116.235V132.097C20 135.595 20.2914 139.105 21.2653 142.465C25.7265 157.857 35.8535 171 56.992 171C82.7822 171 95.5471 151.963 95.5471 126.927V122.494H95.5306L95.5765 99.9728H48.6852Z" fill="white"/>
</g>
<defs>
<filter id="filter0_d_2739_1304" x="0" y="0" width="422" height="195" filterUnits="userSpaceOnUse" color-interpolation-filters="sRGB">
<feFlood flood-opacity="0" result="BackgroundImageFix"/>
<feColorMatrix in="SourceAlpha" type="matrix" values="0 0 0 0 0 0 0 0 0 0 0 0 0 0 0 0 0 0 127 0" result="hardAlpha"/>
<feOffset dy="4"/>
<feGaussianBlur stdDeviation="10"/>
<feComposite in2="hardAlpha" operator="out"/>
<feColorMatrix type="matrix" values="0 0 0 0 0 0 0 0 0 0 0 0 0 0 0 0 0 0 0.5 0"/>
<feBlend mode="normal" in2="BackgroundImageFix" result="effect1_dropShadow_2739_1304"/>
<feBlend mode="normal" in="SourceGraphic" in2="effect1_dropShadow_2739_1304" result="shape"/>
</filter>
</defs>
</svg>
