<svg width="149" height="158" viewBox="0 0 149 158" fill="none" xmlns="http://www.w3.org/2000/svg">
<path fill-rule="evenodd" clip-rule="evenodd" d="M95.6901 23.0995C96.4181 19.3209 97.3468 15.5702 98.2754 11.8195C98.3349 10.9225 98.4118 10.0484 98.4868 9.19451C98.6488 7.35204 98.8025 5.60376 98.756 3.92307C98.7219 2.69327 97.7955 0.523133 96.993 0.411935C95.7891 0.245137 93.6438 0.968808 92.9031 1.88708C90.9371 4.26901 88.9156 7.05162 87.6967 9.94543C83.7837 18.9997 80.2721 28.1096 76.9333 37.4476C74.9522 42.8901 73.9744 48.4717 75.2315 54.1587C76.019 57.3305 77.4917 59.9847 81.1034 60.4851C84.715 60.9855 87.0546 58.8595 88.4741 55.9935C89.866 53.3278 90.6836 50.3784 91.3006 47.4012C92.0702 43.3221 92.7828 39.2862 93.4953 35.2503C94.2079 31.2144 94.9204 27.1785 95.6901 23.0995ZM50.0616 153.169C50.2131 155.028 50.5375 157.115 53.291 157.905C53.6363 156.89 53.9908 155.868 54.348 154.838L54.349 154.835C55.7756 150.723 57.2455 146.485 58.3483 142.067C61.9583 129.295 65.167 116.468 68.3757 103.641C68.8261 101.866 68.903 99.8347 68.7515 97.9761C68.1028 93.8026 65.1978 91.1542 61.7035 91.2826C58.2092 91.411 56.2432 93.7929 55.6326 98.2003C55.1116 103.437 54.3622 108.846 53.6405 114.054C53.2509 116.866 52.8389 119.675 52.4281 122.476L52.428 122.477L52.4279 122.477C51.6093 128.058 50.795 133.609 50.171 139.096C49.639 142.936 49.8036 146.872 49.9685 150.808C50.0013 151.596 50.0344 152.383 50.0616 153.169ZM148.795 92.936C147.793 93.017 146.771 93.1252 145.743 93.2341C142.954 93.5292 140.113 93.8299 137.454 93.6107L135.503 93.5235C120.927 92.8713 106.521 92.2269 91.9821 91.1899C89.5466 91.0567 86.8208 90.0665 84.7524 88.759C81.9093 87.14 82.554 83.9625 85.5574 82.9493C87.2736 82.3704 89.1349 82.2199 90.7401 82.4423C109.885 84.4823 128.974 86.9229 147.813 91.1666C148.215 91.2222 148.588 91.4781 148.962 91.734L148.795 92.936ZM51.0387 67.8898C53.4074 68.0138 55.7761 68.1378 58.1354 68.3285C58.1909 67.9279 58.2464 67.5272 58.5303 66.954C57.7416 66.7426 57.01 66.4881 56.2784 66.2336C55.5468 65.9791 54.8152 65.7246 54.0265 65.5133C47.0145 63.725 40.0528 61.9438 33.091 60.1625C26.1292 58.3812 19.1675 56.6 12.1556 54.8117C10.9656 54.5448 9.78251 54.2277 8.59945 53.9107C7.41639 53.5936 6.23332 53.2766 5.04332 53.0096C3.03686 52.7316 1.32066 53.3106 0.641804 55.2583C-0.0648085 57.4064 0.917021 59.1758 2.84022 60.0548C4.18923 60.6501 5.73889 61.2732 7.34406 61.4955C9.73109 61.9259 12.1284 62.37 14.5318 62.8152C21.9716 64.1931 29.4698 65.582 36.9009 66.6116C41.5643 67.3939 46.3015 67.6418 51.0387 67.8898Z" fill="white"/>
</svg>
