<svg width="186" height="40" viewBox="0 0 186 40" fill="none" xmlns="http://www.w3.org/2000/svg">
<path d="M0 0V39.3385H5.79355V35.2122C7.69238 38.3394 11.0301 39.9311 14.6548 39.9311C22.4189 39.9311 27.5964 34.0919 27.5964 25.5408C27.5964 16.9897 22.6721 10.7959 15.2455 10.7959C13.3723 10.8167 11.537 11.3395 9.92184 12.3122C8.30667 13.2849 6.96784 14.6738 6.03829 16.3409V0H0ZM13.6927 16.3972C18.0051 16.3972 21.575 20.1732 21.575 25.5408C21.575 30.9085 18.0642 34.4466 13.6927 34.4466C9.54902 34.4466 5.81042 30.9648 5.81042 25.5408C5.81042 20.1169 9.66295 16.3972 13.6927 16.3972V16.3972Z" fill="white"/>
<path d="M41.8838 39.9305C45.5633 39.9305 48.3862 38.2782 50.323 34.9175V39.3379H56.3656V11.3835H50.3399V26.0679C50.3399 31.3188 47.5212 34.6233 43.4366 34.6233C39.985 34.6233 37.9722 32.2617 37.9722 27.8413V11.3835H31.9297V29.3119C31.9297 36.3924 35.9004 39.9305 41.8838 39.9305Z" fill="white"/>
<path d="M72.4449 34.6235C68.7021 34.6235 66.2884 33.088 64.8495 29.6105L59.959 32.2619C61.7987 36.9808 65.9424 39.9306 72.1959 39.9306C78.4494 39.9306 83.302 36.2714 83.302 31.0811C83.302 26.3232 80.5381 23.4772 73.8078 22.4737C68.5712 21.7038 66.9045 20.9382 66.9045 18.8145C66.9045 17.0844 68.9763 15.7479 71.6769 15.7479C74.3774 15.7479 76.2256 16.9893 77.0274 19.4633L81.631 16.8682C79.8503 13.0359 76.9134 10.8127 71.622 10.8127C66.0985 10.8127 61.4359 14.0567 61.4359 18.7151C61.4359 23.3734 64.7736 25.9123 70.8161 26.9331C76.1075 27.7982 77.5464 28.8795 77.5464 31.4184C77.5633 33.2653 75.6644 34.6235 72.4449 34.6235Z" fill="white"/>
<path d="M92.8892 24.4768C92.8892 19.2302 95.8218 15.9257 99.7334 15.9257C103.818 15.9257 106.004 18.2873 106.004 22.7078V39.3385H112.046V20.9387C112.046 14.9828 108.308 10.7959 102.341 10.7959C97.7966 10.7959 94.3239 13.1532 92.9061 17.1065V0H86.8467V39.3385H92.8892V24.4768Z" fill="white"/>
<path d="M122.433 11.3882H116.391V39.3425H122.433V11.3882Z" fill="white"/>
<path d="M138.461 39.9311C142.545 39.9311 145.942 37.9847 147.609 34.624V39.3385H153.419V0H147.381V16.3409C145.824 12.9759 142.659 10.7959 138.461 10.7959C130.81 10.7959 125.802 16.9897 125.802 25.5408C125.802 33.854 130.81 39.9311 138.461 39.9311ZM139.727 16.3972C143.87 16.3972 147.609 20.0564 147.609 25.5408C147.609 31.0253 143.87 34.4466 139.727 34.4466C138.675 34.4629 137.632 34.2565 136.662 33.8405C135.692 33.4244 134.816 32.8077 134.089 32.0288C132.591 30.3765 131.844 28.1922 131.844 25.5408C131.844 20.1732 135.41 16.3972 139.727 16.3972Z" fill="white"/>
<path d="M119.407 7.69902C120.15 7.69987 120.876 7.47472 121.495 7.05206C122.113 6.6294 122.595 6.02823 122.88 5.32465C123.164 4.62107 123.239 3.8467 123.094 3.09957C122.949 2.35243 122.592 1.66612 122.066 1.12749C121.541 0.588869 120.871 0.222154 120.142 0.0737579C119.413 -0.0746383 118.658 0.00196078 117.972 0.293857C117.285 0.585753 116.699 1.07982 116.286 1.71353C115.874 2.34725 115.654 3.0921 115.655 3.85383C115.655 4.87364 116.05 5.85168 116.754 6.57279C117.457 7.2939 118.412 7.69902 119.407 7.69902Z" fill="white"/>
<path d="M171.706 4.22581C170.498 4.22403 169.325 3.80662 168.376 3.04043C167.426 2.27425 166.755 1.20361 166.47 0H161.25C161.592 2.59356 162.84 4.97205 164.762 6.69432C166.684 8.41659 169.151 9.36575 171.704 9.36575C174.257 9.36575 176.724 8.41659 178.646 6.69432C180.569 4.97205 181.816 2.59356 182.158 0H176.939C176.655 1.20363 175.985 2.27459 175.036 3.04094C174.087 3.8073 172.914 4.22459 171.706 4.22581Z" fill="#C0524F"/>
<path d="M171.669 40C174.459 40 177.186 39.1519 179.506 37.5631C181.825 35.9743 183.633 33.716 184.701 31.0739C185.769 28.4318 186.048 25.5245 185.504 22.7196C184.96 19.9148 183.616 17.3383 181.643 15.3161C179.671 13.2939 177.157 11.9168 174.421 11.3589C171.684 10.801 168.848 11.0873 166.271 12.1817C163.693 13.2761 161.49 15.1294 159.94 17.5073C158.39 19.8851 157.562 22.6807 157.562 25.5405C157.566 29.3743 159.053 33.0502 161.698 35.7611C164.343 38.472 167.929 39.9965 171.669 40V40ZM171.669 16.6866C173.378 16.6866 175.049 17.2063 176.47 18.1798C177.892 19.1534 178.999 20.5371 179.653 22.156C180.307 23.7748 180.478 25.5561 180.144 27.2746C179.81 28.993 178.987 30.5714 177.778 31.8101C176.569 33.0487 175.029 33.892 173.352 34.2333C171.675 34.5747 169.938 34.3986 168.359 33.7275C166.78 33.0564 165.43 31.9203 164.481 30.463C163.532 29.0057 163.026 27.2927 163.027 25.5405C163.029 23.1923 163.94 20.9409 165.561 19.2809C167.181 17.6208 169.378 16.6878 171.669 16.6866Z" fill="#C0524F"/>
</svg>
