<svg width="197" height="76" viewBox="0 0 197 76" fill="none" xmlns="http://www.w3.org/2000/svg">
<path d="M0 0.526611V39.8644H5.79339V35.7382C7.69217 38.8653 11.0298 40.457 14.6544 40.457C22.4183 40.457 27.5956 34.618 27.5956 26.067C27.5956 17.5161 22.6714 11.3223 15.2451 11.3223C13.3719 11.3432 11.5367 11.8659 9.92156 12.8386C8.30644 13.8113 6.96765 15.2002 6.03812 16.8673V0.526611H0ZM13.6923 16.9235C18.0047 16.9235 21.5744 20.6994 21.5744 26.067C21.5744 31.4346 18.0637 34.9726 13.6923 34.9726C9.54875 34.9726 5.81026 31.4908 5.81026 26.067C5.81026 20.6432 9.66268 16.9235 13.6923 16.9235Z" fill="#212427"/>
<path d="M41.883 40.4571C45.5624 40.4571 48.3853 38.8048 50.3221 35.4441V39.8645H56.3644V11.9106H50.3389V26.5948C50.3389 31.8456 47.5203 35.15 43.4358 35.15C39.9842 35.15 37.9715 32.7885 37.9715 28.3681V11.9106H31.9292V29.8387C31.9292 36.919 35.8998 40.4571 41.883 40.4571Z" fill="#212427"/>
<path d="M72.4431 35.1499C68.7003 35.1499 66.2868 33.6145 64.8479 30.137L59.9575 32.7883C61.7972 37.5072 65.9408 40.4569 72.1941 40.4569C78.4474 40.4569 83.2999 36.7978 83.2999 31.6076C83.2999 26.8498 80.5361 24.0038 73.806 23.0004C68.5695 22.2305 66.9028 21.4649 66.9028 19.3412C66.9028 17.6112 68.9746 16.2747 71.6751 16.2747C74.3756 16.2747 76.2237 17.516 77.0254 19.99L81.6289 17.3949C79.8483 13.5628 76.9115 11.3396 71.6202 11.3396C66.0969 11.3396 61.4343 14.5835 61.4343 19.2418C61.4343 23.9 64.772 26.4389 70.8143 27.4597C76.1056 28.3247 77.5444 29.406 77.5444 31.9449C77.5613 33.7918 75.6625 35.1499 72.4431 35.1499Z" fill="#212427"/>
<path d="M92.8871 25.003C92.8871 19.7565 95.8196 16.452 99.7311 16.452C103.816 16.452 106.001 18.8136 106.001 23.234V39.8644H112.044V21.465C112.044 15.5092 108.305 11.3223 102.339 11.3223C97.7944 11.3223 94.3217 13.6796 92.9039 17.6328V0.526611H86.8447V39.8644H92.8871V25.003Z" fill="#212427"/>
<path d="M122.429 11.9148H116.387V39.8687H122.429V11.9148Z" fill="#212427"/>
<path d="M138.457 40.457C142.541 40.457 145.938 38.5107 147.605 35.15V39.8644H153.415V0.526611H147.377V16.8673C145.82 13.5023 142.655 11.3223 138.457 11.3223C130.807 11.3223 125.798 17.5161 125.798 26.067C125.798 34.3801 130.807 40.457 138.457 40.457ZM139.723 16.9235C143.866 16.9235 147.605 20.5826 147.605 26.067C147.605 31.5514 143.866 34.9726 139.723 34.9726C138.671 34.9889 137.628 34.7825 136.658 34.3665C135.688 33.9505 134.812 33.3337 134.085 32.5548C132.588 30.9026 131.841 28.7184 131.841 26.067C131.841 20.6994 135.406 16.9235 139.723 16.9235Z" fill="#212427"/>
<path d="M119.403 8.22549C120.146 8.22635 120.873 8.0012 121.491 7.57854C122.109 7.15589 122.591 6.55473 122.876 5.85117C123.161 5.1476 123.235 4.37325 123.091 3.62612C122.946 2.879 122.588 2.1927 122.063 1.65408C121.537 1.11547 120.868 0.748762 120.139 0.600368C119.41 0.451974 118.655 0.528572 117.968 0.820463C117.282 1.11235 116.695 1.60642 116.283 2.24012C115.871 2.87382 115.651 3.61866 115.652 4.38038C115.652 5.40017 116.047 6.37819 116.751 7.09928C117.454 7.82038 118.408 8.22549 119.403 8.22549Z" fill="#212427"/>
<path d="M171.702 4.75235C170.493 4.75057 169.32 4.33317 168.371 3.56699C167.422 2.80082 166.75 1.7302 166.465 0.526611H161.246C161.587 3.12012 162.835 5.49858 164.758 7.22082C166.68 8.94305 169.146 9.8922 171.699 9.8922C174.253 9.8922 176.719 8.94305 178.641 7.22082C180.564 5.49858 181.812 3.12012 182.153 0.526611H176.934C176.65 1.73022 175.98 2.80116 175.031 3.5675C174.082 4.33384 172.91 4.75113 171.702 4.75235Z" fill="#C0524F"/>
<path d="M171.664 40.5266C174.454 40.5266 177.182 39.6785 179.501 38.0897C181.821 36.5009 183.629 34.2427 184.697 31.6006C185.764 28.9586 186.043 26.0513 185.499 23.2465C184.955 20.4417 183.611 17.8653 181.639 15.8432C179.666 13.821 177.153 12.4439 174.416 11.886C171.68 11.3281 168.844 11.6144 166.266 12.7088C163.689 13.8032 161.486 15.6565 159.936 18.0343C158.386 20.4121 157.559 23.2076 157.559 26.0674C157.562 29.9011 159.049 33.5769 161.694 36.2878C164.338 38.9986 167.924 40.5231 171.664 40.5266ZM171.664 17.2136C173.374 17.2136 175.045 17.7333 176.466 18.7068C177.887 19.6803 178.995 21.064 179.649 22.6829C180.303 24.3017 180.473 26.083 180.14 27.8014C179.806 29.5198 178.982 31.0982 177.773 32.3368C176.564 33.5754 175.024 34.4187 173.348 34.76C171.671 35.1013 169.933 34.9253 168.355 34.2542C166.776 33.5831 165.426 32.4471 164.477 30.9898C163.528 29.5325 163.022 27.8195 163.023 26.0674C163.025 23.7192 163.936 21.4679 165.557 19.8078C167.177 18.1478 169.374 17.2148 171.664 17.2136Z" fill="#C0524F"/>
<path d="M7.728 51.76L7.248 56.368L11.856 55.072L12.192 57.28L7.776 57.64L10.632 61.432L8.568 62.56L6.528 58.36L4.68 62.56L2.544 61.432L5.352 57.64L0.984 57.28L1.32 55.072L5.88 56.368L5.376 51.76H7.728ZM15.4748 66.808C15.4748 68.968 16.3148 70 18.6668 70H20.8028V68.2H18.8588C17.8028 68.2 17.4428 67.816 17.4428 66.784V59.56H20.6108V57.76H17.4428V54.328H15.4748V57.76H13.2668V59.56H15.4748V66.808ZM28.5081 57.616C26.4441 57.616 25.1961 58.624 24.4761 59.776V53.2H22.5081V70H24.4761V63.88C24.4761 61.12 25.8921 59.416 28.1721 59.416C30.2841 59.416 31.5081 60.76 31.5081 63.304V70H33.4761V63.184C33.4761 59.128 31.2441 57.616 28.5081 57.616ZM41.484 70.144C44.316 70.144 46.332 68.344 46.812 65.896H44.82C44.412 67.48 43.068 68.392 41.34 68.392C39.012 68.392 37.548 66.76 37.476 64.432V64.264H46.98C47.004 63.976 47.028 63.688 47.028 63.424C46.932 59.8 44.676 57.616 41.22 57.616C37.764 57.616 35.412 60.16 35.412 63.88C35.412 67.624 37.812 70.144 41.484 70.144ZM37.596 62.632C37.788 60.64 39.444 59.344 41.244 59.344C43.284 59.344 44.724 60.52 44.916 62.632H37.596ZM55.0509 65.968C55.0989 68.656 57.2829 70.144 60.4509 70.144C63.1629 70.144 65.3469 68.728 65.3469 66.448C65.3469 63.736 63.1149 63.208 60.3309 62.872C58.5549 62.656 57.2589 62.488 57.2589 61.144C57.2589 60.016 58.4109 59.296 60.1149 59.296C61.7949 59.296 62.9469 60.232 63.0909 61.48H65.1069C64.9149 58.936 62.8989 57.64 60.1149 57.616C57.3549 57.592 55.3149 59.056 55.3149 61.288C55.3149 63.832 57.4989 64.384 60.2349 64.72C62.0589 64.936 63.4029 65.056 63.4029 66.592C63.4029 67.72 62.1789 68.464 60.4509 68.464C58.4109 68.464 57.1389 67.408 57.0669 65.968H55.0509ZM68.4435 66.808C68.4435 68.968 69.2835 70 71.6355 70H73.7715V68.2H71.8275C70.7715 68.2 70.4115 67.816 70.4115 66.784V59.56H73.5795V57.76H70.4115V54.328H68.4435V57.76H66.2355V59.56H68.4435V66.808ZM80.8121 70.144C84.3881 70.144 86.8841 67.6 86.8841 63.88C86.8841 60.16 84.3881 57.616 80.8121 57.616C77.2361 57.616 74.7401 60.16 74.7401 63.88C74.7401 67.6 77.2361 70.144 80.8121 70.144ZM80.8121 68.392C78.3881 68.392 76.7561 66.496 76.7561 63.88C76.7561 61.264 78.3881 59.368 80.8121 59.368C83.2361 59.368 84.8681 61.264 84.8681 63.88C84.8681 66.496 83.2361 68.392 80.8121 68.392ZM94.8049 57.76C92.6209 57.76 91.6849 58.672 91.1089 59.608L90.8449 57.76H89.1409V70H91.1089V63.76C91.1089 61.816 91.8049 59.68 94.3729 59.68H95.3569V57.76H94.8049ZM100.709 70.072L100.109 71.56C99.6525 72.712 99.4605 73 98.3325 73H96.5805V74.8H98.9325C100.661 74.8 101.117 74.032 101.885 72.064L107.525 57.76H105.437L101.789 67.528L98.0205 57.76H95.9325L100.709 70.072ZM120.914 70.144C124.49 70.144 126.986 67.6 126.986 63.88C126.986 60.16 124.49 57.616 120.914 57.616C117.338 57.616 114.842 60.16 114.842 63.88C114.842 67.6 117.338 70.144 120.914 70.144ZM120.914 68.392C118.49 68.392 116.858 66.496 116.858 63.88C116.858 61.264 118.49 59.368 120.914 59.368C123.338 59.368 124.97 61.264 124.97 63.88C124.97 66.496 123.338 68.392 120.914 68.392ZM127.806 59.56H130.014V70H131.982V59.56H135.438V57.76H131.982V56.344C131.982 55.408 132.342 55 133.326 55H135.438V53.2H133.206C130.926 53.2 130.014 54.232 130.014 56.392V57.76H127.806V59.56ZM148.637 70.144C151.613 70.144 153.605 68.464 154.085 65.824H151.997C151.613 67.384 150.413 68.392 148.661 68.392C146.309 68.392 144.725 66.568 144.725 63.904C144.725 61.24 146.309 59.368 148.661 59.368C150.461 59.368 151.661 60.352 152.021 61.984H154.085C153.581 59.296 151.685 57.616 148.685 57.616C145.133 57.616 142.709 60.16 142.709 63.904C142.709 67.72 145.061 70.144 148.637 70.144ZM161.882 70.144C165.458 70.144 167.954 67.6 167.954 63.88C167.954 60.16 165.458 57.616 161.882 57.616C158.306 57.616 155.81 60.16 155.81 63.88C155.81 67.6 158.306 70.144 161.882 70.144ZM161.882 68.392C159.458 68.392 157.826 66.496 157.826 63.88C157.826 61.264 159.458 59.368 161.882 59.368C164.306 59.368 165.938 61.264 165.938 63.88C165.938 66.496 164.306 68.392 161.882 68.392ZM179.859 59.632C179.115 58.456 177.723 57.616 175.659 57.616C172.275 57.616 169.779 60.136 169.779 63.88C169.779 67.864 172.275 70.144 175.659 70.144C177.723 70.144 179.043 69.16 179.859 68.032L180.123 70H181.827V53.2H179.859V59.632ZM175.851 68.392C173.427 68.392 171.795 66.544 171.795 63.88C171.795 61.216 173.427 59.368 175.851 59.368C178.251 59.368 179.883 61.24 179.883 63.928C179.883 66.544 178.251 68.392 175.851 68.392ZM190.148 70.144C192.98 70.144 194.996 68.344 195.476 65.896H193.484C193.076 67.48 191.732 68.392 190.004 68.392C187.676 68.392 186.212 66.76 186.14 64.432V64.264H195.644C195.668 63.976 195.692 63.688 195.692 63.424C195.596 59.8 193.34 57.616 189.884 57.616C186.428 57.616 184.076 60.16 184.076 63.88C184.076 67.624 186.476 70.144 190.148 70.144ZM186.26 62.632C186.452 60.64 188.108 59.344 189.908 59.344C191.948 59.344 193.388 60.52 193.58 62.632H186.26Z" fill="#002124"/>
</svg>
