<svg width="120" height="97" viewBox="0 0 120 97" fill="none" xmlns="http://www.w3.org/2000/svg">
<path d="M66.9503 0C72.6118 1.31662 78.3391 1.77744 83.9348 3.29156C95.2577 6.38562 105.396 11.4546 113.23 20.4735C115.007 22.5143 115.6 23.8309 112.703 25.345C108.621 27.4516 105.857 29.5582 107.371 35.5488C108.819 41.342 107.7 47.7276 107.7 53.9158C107.7 55.2324 107.239 55.8248 106.054 56.2857C98.0885 59.643 98.1543 59.7089 98.1543 51.0192C98.1543 48.8467 97.9568 46.6085 98.2201 44.436C99.3393 34.4955 94.0728 28.5049 85.8439 24.4892C77.1541 20.2102 67.8719 19.0911 58.3264 19.9469C64.8437 21.2635 71.4268 22.5143 77.4833 25.4109C82.8156 27.9783 87.358 31.4673 90.5179 36.6022C91.637 38.3796 91.637 39.5645 89.5962 40.8153C84.1322 44.2386 78.7999 47.9251 73.4676 51.5458C72.2168 52.4016 71.4268 52.5991 70.1102 51.48C55.759 39.2354 38.7087 33.1131 20.3418 30.2823C16.1286 29.624 11.9154 28.9657 7.70225 28.2416C4.87151 27.7808 2.23826 26.8591 0 25.0158C0 23.8967 0 22.8434 0 21.7243C2.83074 17.9061 6.58311 15.207 10.7963 13.0346C17.5769 9.41389 24.7525 6.84644 31.9939 4.60818C38.7746 2.50158 45.7527 1.51412 52.6649 0C57.2731 0 62.1446 0 66.9503 0Z" fill="#F5F1E8"/>
<path d="M87.3574 96.7719C84.8559 91.6371 86.0408 86.7656 88.7399 82.1575C90.5173 79.0634 92.8214 76.2326 94.7964 73.2044C96.3763 70.8345 97.7588 68.2013 97.9563 65.3705C98.1538 62.6714 99.4046 61.4865 101.84 61.0915C102.696 60.9598 103.486 60.5648 104.342 60.2356C106.251 59.5115 107.699 58.5899 108.028 62.079C108.423 65.6997 111.254 68.1354 114.282 70.1762C119.351 73.5994 120.866 77.7467 119.549 83.7374C119.022 86.0415 117.179 87.0948 115.467 88.1481C109.148 92.0321 102.301 94.5337 95.1255 96.1795C94.4672 96.3112 93.8089 96.2453 93.3481 96.9036C91.3073 96.772 89.3324 96.7719 87.3574 96.7719ZM89.3982 87.424C89.3982 90.1889 90.649 90.7155 92.7556 89.6622C99.0096 86.6998 105.329 84.0007 112.176 82.8158C114.019 82.4866 115.928 81.9599 116.257 79.6558C116.652 77.2201 115.731 75.311 113.756 73.9944C111.386 72.3486 109.016 70.9003 106.58 69.3204C104.803 68.2013 102.894 68.0696 101.445 69.6495C96.9688 74.5869 92.6239 79.6559 89.7932 85.7782C89.5957 86.3048 89.5299 87.029 89.3982 87.424Z" fill="#F5F1E8"/>
<path d="M91.9663 46.0819C91.9663 52.0067 91.9663 57.8656 91.9663 63.7905C91.9663 65.3704 90.8472 66.3579 89.728 67.2795C80.6433 75.0476 70.5053 81.3674 59.9723 86.963C58.129 87.9505 56.4174 87.8188 54.64 86.8972C43.8437 81.3015 33.6398 74.7184 23.5677 67.9378C20.8028 66.0945 19.552 63.7246 19.6836 60.2356C19.947 53.9816 19.8811 47.7277 19.6178 41.5395C19.4861 38.7088 20.6053 38.4454 23.041 38.5113C40.8154 39.2354 56.0225 45.8186 68.4645 58.4581C70.3078 60.3014 71.4928 60.1698 73.336 58.7873C78.405 55.0349 83.6715 51.3483 88.8722 47.7276C89.728 47.0035 90.4522 46.0819 91.9663 46.0819Z" fill="#F5F1E8"/>
</svg>
